<?xml version="1.0" encoding="utf-8"?>
<!-- Generator: Adobe Illustrator 18.0.0, SVG Export Plug-In . SVG Version: 6.00 Build 0)  -->
<!DOCTYPE svg PUBLIC "-//W3C//DTD SVG 1.1//EN" "http://www.w3.org/Graphics/SVG/1.1/DTD/svg11.dtd">
<svg version="1.1" id="图层_1" xmlns="http://www.w3.org/2000/svg" xmlns:xlink="http://www.w3.org/1999/xlink" x="0px" y="0px"
	 viewBox="0 0 200 200" enable-background="new 0 0 200 200" xml:space="preserve">
<g>
	<rect x="2.3" y="32.4" fill="none" width="172.8" height="146.6"/>
	<path fill="#4EBFF6" stroke="#4EBFF6" stroke-linecap="round" stroke-linejoin="round" stroke-miterlimit="10" d="M100.8,149.8
		c3.8-4.3,6.5-8.8,9.2-13.9c3.5-6.7,4.5-14.2,5.6-22.3c1.3-10.3,2.4-20,6.6-29.1c0.6-1.4-0.5-2.5-1.6-3.4c-0.5-0.4-1.2-0.4-1.9,0.5
		c-6.1,7.2-9.1,17.4-10.3,28c-1.6,14.4-7.2,26.4-16.3,35.8c-6.1,6.3-10.9,7.7-17.7,2.8c-1.5-1.1-2.1-1.5-3.5-2.6
		c0,0.1-0.4-0.2-0.4-0.2c0.9,1.3,1.2,2,2.1,3.2C79.1,157.9,93.5,157.9,100.8,149.8L100.8,149.8z M100.8,149.8"/>
	<path fill="#4EBFF6" stroke="#4EBFF6" stroke-miterlimit="10" d="M19.7,86.8c0.4,0.3,0.8,0.6,1.3,1.1c7.4,6.3,16.8,9.4,25.9,12.4
		c3.2,1.1,6.6,1.9,9.9,2.8c9.2,2.6,18.7,5.4,25.5,12.4c3.5,3.5,6,7.7,7.5,12.3c0.2,0.6,0.5,1.3,0.6,1.9c0.2,0.6,0.2,1.2,0.3,1.9v0.2
		c0.2,0.6,0.3,1.2,0.4,1.8c0.1,0.9,0.1,1.8,0.2,2.8c0.2,1,0.1,1.9-0.1,3c-0.2,0.9-0.1,1.9-0.3,2.9l-0.2,1.5c-0.2,0.5-0.3,1-0.4,1.5
		c-0.1,0.3-0.2,0.7-0.3,1.1c-0.2,0.4-0.4,0.8-0.6,1.1c-0.2,0.6-0.5,1.1-0.8,1.6c-0.1,0.2-0.2,0.4-0.4,0.6c-0.4,0.6-0.7,1.1-1.1,1.5
		c-0.5,0.6-1,1-1.5,1.5c-0.3,0.2-0.6,0.6-1,0.7c-0.4,0.3-0.8,0.6-1.2,0.9c-0.3,0.2-0.6,0.3-0.9,0.4c0-0.1-0.1-0.1-0.1-0.2l0.2-0.5
		c0.2-0.5,0.6-1,0.8-1.5c0.2-0.5,0.4-1.1,0.6-1.6c0.2-0.7,0.5-1.5,0.6-2.2c0.2-0.7,0.3-1.5,0.5-2.4c0.1-0.7,0.2-1.5,0.2-2.3
		c-0.1-4.5-0.2-9.2-1.9-13.5c-1.6-4.1-4.2-7.6-7.4-10.6c-3.2-3-7-4.9-10.9-6.8c-4.2-1.9-8.7-3.2-13.1-4.7
		c-5.3-1.8-10.2-3.8-15.1-6.4c-0.5-0.2-1-0.4-1.5-0.6c-0.7-0.4-1.4-0.8-2.1-1.2c-0.2-0.1-0.4-0.2-0.6-0.4c-0.4-0.2-0.8-0.6-1.2-0.8
		l-1.2-0.7c-0.4-0.2-0.7-0.6-1.1-0.8c-0.5-0.3-1-0.6-1.5-1.1c-0.6-0.4-1.1-1-1.6-1.4c-0.4-0.3-0.9-0.6-1.3-1.1
		c-0.5-0.5-0.9-1-1.4-1.5c-0.6-0.6-1.2-1.4-1.8-2.1c-0.6-0.8-1.3-1.7-1.9-2.6C19.9,87.4,19.8,87.2,19.7,86.8
		C19.6,86.8,19.6,86.8,19.7,86.8L19.7,86.8z M19.7,86.8"/>
	<rect x="2.3" y="32.4" fill="none" width="172.8" height="146.6"/>
	<path fill="#4EBFF6" stroke="#4EBFF6" stroke-miterlimit="10" d="M23.3,92.4c0,0,5,13.1,10.9,17.7s-11.5-2.3-14.4-13.6
		C15.3,78.9,21.6,89.2,23.3,92.4z"/>
	<g>
		<path fill="#FCD006" d="M194.9,76.8l-13.8-1.4l-5.9,2.4l-10.8,7.8l-2.6,3.8l17.5,6.4l5.6-2.3l10.9-9.8l2.4-4.9
			C197.5,77.7,196.3,76.9,194.9,76.8z"/>
		<g>
			<polygon fill="#ED7700" points="156,56.2 146.8,57.2 124.2,67.2 117.5,73.3 141.7,82.1 166.8,67.5 			"/>
		</g>
		<path fill="#ED7700" d="M144.3,43.9c-3.6-3-8.5-4.4-13.1-4.1c0,0,0,0,0,0c-15.7,0.7-52.4,4.9-87.8,15.3l13.6,5l14.2-3.8l16.4,6
			l12.6-4.1l17.1-2l19.8-6.4L144.3,43.9z"/>
		<polygon fill="#F6AA00" points="87.6,62.4 74.6,66.6 91.5,72.8 103.5,68.2 		"/>
		<path fill="#FFE56D" d="M198.2,78.8l-18.8,17l15.7,5.7l3.9-19.2C199.2,81.1,198.9,79.8,198.2,78.8z"/>
		<path fill="#F6AA00" d="M148.2,99.3l48-34.9c0,0-7.9-2.1-12.9-3.1c-3.5-0.7-7,0.7-8.9,1.8c-5,2.9-52.2,30.2-52.2,30.2l16.3,5.9
			c0.2,2.1,0.3,4.8,0.3,6.4c0,35-28.5,63.6-63.6,63.6c-35.1,0-63.5-28.6-63.5-63.6c0-1.1,0-2.3,0.1-3.4h-0.1
			c0-37.3,31-68.3,68.3-68.3c7.3,0,14.4,1.2,21,3.4c-8-3-16.7-4.7-25.8-4.7c-40.3,0-73,32.8-73,73.1c0,40.3,32.8,73.1,73.1,73.1
			c40.3,0,73.1-32.8,73.1-73.1c0-2.1-0.1-4.1-0.3-6.1L148.2,99.3z"/>
		<path fill="#F6AA00" d="M145.9,45.4L145.9,45.4c-0.5-0.5-1-1-1.6-1.5l-44.1,14.3l14.9,5.5l-11.6,4.4l14.1,5.1L156,56.2L145.9,45.4
			z"/>
	</g>
</g>
</svg>
